PathFileType	4	(X/Y/Z)	RBDS018\RBDS018runT35.trc
DataRate	CameraRate	NumFrames	NumMarkers	Units	OrigDataRate	OrigDataStartFrame	OrigNumFrames
150.000000	150.000000	4	33	mm	150.000000	3375	4500
Frame#	Time	L.ASIS			L.Heel.Bottom			L.Heel.Lateral			L.Heel.Top			L.Iliac.Crest			L.MT1			L.MT5			L.PSIS			L.Shank.Bottom.Lateral			L.Shank.Bottom.Medial			L.Shank.Top.Lateral			L.Shank.Top.Medial			L.Thigh.Bottom.Lateral			L.Thigh.Bottom.Medial			L.Thigh.Top.Lateral			L.Thigh.Top.Medial			R.ASIS			R.ASY			R.Heel.Bottom			R.Heel.Lateral			R.Heel.Top			R.Iliac.Crest			R.MT1			R.MT5			R.PSIS			R.Shank.Bottom.Lateral			R.Shank.Bottom.Medial			R.Shank.Top.Lateral			R.Shank.Top.Medial			R.Thigh.Bottom.Lateral			R.Thigh.Bottom.Medial			R.Thigh.Top.Lateral			R.Thigh.Top.Medial			
		X1	Y1	Z1	X2	Y2	Z2	X3	Y3	Z3	X4	Y4	Z4	X5	Y5	Z5	X6	Y6	Z6	X7	Y7	Z7	X8	Y8	Z8	X9	Y9	Z9	X10	Y10	Z10	X11	Y11	Z11	X12	Y12	Z12	X13	Y13	Z13	X14	Y14	Z14	X15	Y15	Z15	X16	Y16	Z16	X17	Y17	Z17	X18	Y18	Z18	X19	Y19	Z19	X20	Y20	Z20	X21	Y21	Z21	X22	Y22	Z22	X23	Y23	Z23	X24	Y24	Z24	X25	Y25	Z25	X26	Y26	Z26	X27	Y27	Z27	X28	Y28	Z28	X29	Y29	Z29	X30	Y30	Z30	X31	Y31	Z31	X32	Y32	Z32	X33	Y33	Z33	

3376	22.5	2099.708571417083	992.8207008898158	922.2801641624411	1647.330811953598	77.28765844083433	1035.973479527173	1673.841348723885	76.17634443539011	985.2773108621092	1668.148020156872	122.6801768057923	1026.881991408143	2024.854417874116	1063.942757719739	886.5338375951719	1867.119807775294	40.34672803466417	1060.942577198743	1828.717073915209	42.20051948534876	949.6571124709706	1932.25230916678	1024.621891984763	1006.205473989414	1770.45437701701	205.8296314858166	942.6889431537228	1748.138583714535	231.5907208410889	980.8564547008834	1804.848474090857	273.5202972380914	913.0571453413668	1786.023808907399	302.6705279622162	953.6881255136544	1984.253006586303	598.4284403558978	856.0813259881826	1928.8636360049	602.1208338863296	903.6147770936113	1982.286582083363	707.5673042249362	845.5423614691016	1929.388508499532	711.123982545683	890.9461693926607	2124.112428736832	992.1426822820354	1154.063967949527	1923.674772822301	301.669672914067	1087.264721274094	1819.341919664953	473.9606215674301	1086.158082903235	1840.088315518251	456.2328678912684	1123.504012838938	1870.306185665232	474.7960420825664	1086.27001888331	2059.716409004561	1064.767651727338	1193.817262348754	1886.729857680172	264.1111708196813	1036.685947999392	1878.827235167169	284.8012256694856	1146.252999940527	1944.47022469177	1022.743738781436	1112.566608710361	2001.272411784342	447.6113352490659	1153.560884250949	1986.095367827419	496.5554713313352	1131.802361881231	2073.867077790914	480.5082946652918	1171.662956713518	2057.766030877393	527.3234687481573	1149.985252843343	2260.467752693461	633.6725700920757	1199.421006470416	2205.743061132929	600.3263626487876	1165.154500896348	2193.039109193328	717.869883539238	1225.228948526505	2140.762673324632	684.3920087345844	1196.557721641599	
3377	22.50666666666667	2102.658394956811	996.3523670836116	922.5495276451346	1626.815802062333	86.04149558124649	1035.093686463732	1653.376974226967	83.48417240485634	984.5073711247421	1649.317942102867	130.5294875650482	1025.743588851416	2029.990078735471	1068.536972128655	885.2177401206943	1843.739077229283	40.14167096469922	1060.816351885514	1805.803578393385	42.54599396809758	949.7069285941981	1934.162085224262	1029.591413952866	1003.233298926681	1750.903412030222	213.1960680994467	943.4264709677403	1729.056249776329	238.4555636982733	982.1619885524077	1785.240002112914	281.1807560292145	914.5343267977937	1767.021216348712	309.7571631005539	955.8017310701076	1971.629347366867	604.6329244060023	858.5635754646756	1916.939558397945	611.0513269584415	906.6314560605773	1974.364655002125	713.7084325573031	847.3454182891452	1922.053180428416	719.8972487247225	893.1449204665589	2123.645084555313	998.1329279616032	1154.377060490442	1947.190369154847	289.2550582819886	1087.644617752583	1830.973714438155	453.9975796330172	1084.552255483889	1852.511406099977	437.8513366354119	1121.92714002717	1881.823704723077	458.4505000231998	1085.129023294419	2058.524089660612	1070.368646547447	1192.881042000863	1913.448456916712	249.3004613133002	1036.395587982304	1902.609599101821	269.5627199986868	1145.781509266244	1944.734124629303	1027.888278134103	1110.009562128072	2013.334662137446	440.0439619494463	1153.30095884809	1995.243979441316	487.7306011381807	1131.144353241936	2083.413077024096	477.7216793945611	1171.895121196447	2064.488820302975	523.263843007494	1149.854136028886	2265.006761780264	643.535430073119	1200.083775999086	2211.484044356826	609.6068005095593	1164.483133083627	2195.63093881797	726.1903753068741	1225.724138811165	2144.510070655916	692.1358698061198	1195.695031096054	
3378	22.51333333333334	2105.899584777653	1000.188327902907	922.7639407077083	1607.566890129136	95.99769836929605	1034.257103264396	1634.048505333085	91.83210972697502	983.78602982323	1631.966608725941	139.3216031518639	1024.629598373303	2035.676173362122	1073.29294704788	883.8990426008179	1820.814370762256	39.90178035743534	1060.6105666511	1783.295581548601	43.05929410024113	949.6623596131842	1936.399410726791	1034.833141518296	1000.114259310277	1732.526798792863	221.1647831643609	944.1870263621529	1711.12349183063	245.7797197765025	983.5211139806618	1766.673674307835	289.5441965795209	916.1793703129704	1749.004135138922	317.4178285699316	958.1018830302155	1959.533942624043	611.7499220294186	861.357346440584	1905.831536645902	620.8919229362854	910.1173335373425	1966.890838746647	720.5371789271496	849.3328344027353	1915.426099531622	729.3460162535587	895.6798040550508	2123.439603742343	1004.384060097813	1154.436702621494	1971.176105493054	277.0514380235332	1087.972769697421	1843.816213608171	433.488055170944	1082.487910728457	1865.965900693501	418.996332091023	1119.98576685462	1894.292340414591	441.5347340644501	1083.612708827489	2057.782471071258	1076.444506390145	1191.717362993649	1941.00100984827	234.8741658733923	1036.263740081567	1927.128640498074	254.6665640742287	1145.383655360799	1945.257021546763	1033.265937416425	1107.353547685414	2025.677261796165	432.405521048485	1152.894886566677	2004.813605308877	478.4387434226455	1129.924812105766	2092.878871649823	474.8166057554375	1171.849073316886	2071.28766385415	518.6984823102404	1149.043406222687	2268.754250918044	652.9822189632694	1200.754171310059	2216.370739779644	618.6934321958611	1163.750286099033	2197.738799485293	734.2987198456	1226.107952252014	2147.705719154106	699.8745968481419	1194.673997675133	
3379	22.52	2109.344186113209	1004.290348874515	922.9476892609831	1589.802623557531	107.1599367266438	1033.543982689757	1616.017373571361	101.2406271165995	983.1785997153771	1616.285694774419	149.0259304250046	1023.599661999682	2041.834948810326	1078.246192666999	882.6406518490597	1798.461129137474	39.70684255906068	1060.30704839113	1761.253099002726	43.84500511900856	949.5192266152936	1938.922152273836	1040.275256702285	996.920966937495	1715.462469233896	229.6066342282054	944.9465037870192	1694.491164259375	253.4479124484775	984.9111980603655	1749.310026348413	298.4654509227049	917.9520379455139	1732.133063120022	325.5238955531896	960.5352576052362	1948.106723967887	619.6447121939873	864.3420426797085	1895.607852957271	631.459541819781	913.8680820005036	1959.957600025561	727.9295423663605	851.411805919358	1909.553029532138	739.2969599955754	898.4100552214508	2123.497309066143	1010.813880063537	1154.248561933482	1995.594777746631	265.1212525183383	1088.266290163789	1857.939218665736	412.5883162761641	1080.034683626321	1880.513559870592	399.7997583403831	1117.751108077559	1907.784308038149	424.1650444528713	1081.775826844137	2057.483018192387	1082.916574903601	1190.363337741933	1969.317086124899	220.9340768080523	1036.323914243319	1952.339803546335	240.1896835988627	1145.08681248793	1946.019777955837	1038.818570095452	1104.659772087397	2038.353968460613	424.6807977232652	1152.374492753253	2014.922895582001	468.714931770048	1128.226889522267	2102.339382484777	471.7122279182775	1171.555053940788	2078.306456508033	513.5953666286182	1147.620485032301	2271.762549348941	661.9240094829025	1201.413351572645	2220.429786348735	627.4474581454116	1163.003923145005	2199.381710579881	742.12126198524	1226.365403229514	2150.355502375756	707.4884265321118	1193.536017396508	
